HIERARCHY
ROOT Hips
{
	OFFSET 0.000000 0.000000 0.000000
	CHANNELS 6 Xposition Yposition Zposition Zrotation Yrotation Xrotation 
	JOINT LHipJoint
	{
		OFFSET 0.000000 0.000000 0.000000
		CHANNELS 3 Zrotation Yrotation Xrotation
		JOINT LeftUpLeg
		{
			OFFSET 1.363060 -1.794630 0.839290
			CHANNELS 3 Zrotation Yrotation Xrotation
			JOINT LeftLeg
			{
				OFFSET 2.448110 -6.726130 0.000000
				CHANNELS 3 Zrotation Yrotation Xrotation
				JOINT LeftFoot
				{
					OFFSET 2.562200 -7.039590 0.000000
					CHANNELS 3 Zrotation Yrotation Xrotation
					JOINT LeftToeBase
					{
						OFFSET 0.157640 -0.433110 2.322550
						CHANNELS 3 Zrotation Yrotation Xrotation
						End Site
						{
							OFFSET 0.000000 0.000000 0.000000
						}
					}
				}
			}
		}
	}
	JOINT RHipJoint
	{
		OFFSET 0.000000 0.000000 0.000000
		CHANNELS 3 Zrotation Yrotation Xrotation
		JOINT RightUpLeg
		{
			OFFSET -1.305520 -1.794630 0.839290
			CHANNELS 3 Zrotation Yrotation Xrotation
			JOINT RightLeg
			{
				OFFSET -2.542530 -6.985550 0.000000
				CHANNELS 3 Zrotation Yrotation Xrotation
				JOINT RightFoot
				{
					OFFSET -2.568260 -7.056230 0.000000
					CHANNELS 3 Zrotation Yrotation Xrotation
					JOINT RightToeBase
					{
						OFFSET -0.164730 -0.452590 2.363150
						CHANNELS 3 Zrotation Yrotation Xrotation
						End Site
						{
							OFFSET 0.000000 0.000000 0.000000
						}
					}
				}
			}
		}
	}
}
MOTION
Frames: 19
Frame Time: 0.008333
1.375124 18.178830 0.627513 12.200311 72.084904 28.816030 -10.020985 1.577100 4.561470 -8.080454 -0.458305 -28.843848 -3.059552 -0.785259 0.054873 -0.734602 -4.656346 21.718489 -1.635700 -0.000000 -45.775300 10.487549 -5.228031 1.495439 8.669027 -8.241317 0.039092 1.227175 -0.934397 8.387540 -0.610842 -3.003808 23.258230 -1.676400 -0.000001 -49.425000
1.591626 18.174010 0.664944 13.027606 72.026033 29.391231 -9.983723 1.610370 4.625672 -8.788872 -0.007188 -29.005594 -3.276086 -0.837003 -0.727466 -0.886401 -6.402362 22.657155 -2.516000 0.000000 -46.450500 10.602581 -5.242391 1.222793 8.112697 -10.026393 -0.146733 1.017497 -0.981177 10.217670 -1.043855 -6.454655 21.666254 -3.292400 -0.000001 -47.537200
1.805294 18.158338 0.700862 13.873685 71.988568 29.975221 -9.934268 1.641032 4.703719 -9.368278 0.178064 -29.118611 -3.432892 -0.867504 -1.141277 -0.992574 -7.703075 23.300457 -3.193000 0.000000 -46.773600 10.722034 -5.210340 0.945622 7.506020 -11.623060 -0.346171 0.822667 -1.036731 12.324394 -1.482887 -9.612244 19.717512 -4.594300 -0.000000 -44.757501
2.015869 18.131852 0.735166 14.668936 71.961302 30.513733 -9.879302 1.667813 4.791565 -9.773053 0.092764 -29.182259 -3.524996 -0.872938 -1.180024 -1.059445 -8.536343 23.607407 -3.623701 -0.000000 -46.780100 10.839320 -5.143407 0.678158 6.885684 -12.938024 -0.550373 0.647364 -1.110918 14.670638 -1.902550 -12.340877 17.631017 -5.520000 -0.000000 -41.750400
2.223272 18.094612 0.767896 15.366474 71.931013 30.971410 -9.823247 1.688994 4.887220 -9.975137 -0.270059 -29.188735 -3.550751 -0.853293 -0.859246 -1.091725 -8.897465 23.544889 -3.784201 0.000000 -46.547601 10.950197 -5.054614 0.429826 6.283407 -13.911414 -0.761980 0.491299 -1.212576 17.231200 -2.276720 -14.557838 15.605642 -6.079501 -0.000000 -39.130200
2.427544 18.046528 0.799256 15.953298 71.884935 31.344946 -9.766438 1.703099 4.992359 -9.973688 -0.916099 -29.138301 -3.513386 -0.812135 -0.202407 -1.093265 -8.806824 23.082954 -3.675900 0.000001 -46.176401 11.054481 -4.955598 0.205853 5.717762 -14.528543 -1.008966 0.352302 -1.348155 20.008282 -2.579833 -16.199344 13.775322 -6.314500 0.000000 -37.320100
2.628783 17.987395 0.829521 16.441121 71.811435 31.652363 -9.706328 1.709033 5.105796 -9.804866 -1.819324 -29.051501 -3.422271 -0.754282 0.784233 -1.068602 -8.337834 22.184299 -3.338500 0.000000 -45.747700 11.154092 -4.855620 0.010992 5.196302 -14.802853 -1.327217 0.227048 -1.519739 23.007397 -2.791744 -17.223122 12.209645 -6.278100 0.000000 -36.519200
2.827149 17.917023 0.859105 16.871492 71.698833 31.939395 -9.636289 1.706138 5.228231 -9.525181 -2.954721 -28.948044 -3.290768 -0.686711 2.079881 -1.020346 -7.566286 20.827790 -2.826700 -0.000000 -45.346100 11.254897 -4.759676 -0.151921 4.707585 -14.770063 -1.753484 0.111435 -1.725497 26.229115 -2.899443 -17.601415 10.919672 -6.016400 0.000000 -36.755900
3.022901 17.835114 0.888337 17.276583 71.542099 32.240944 -9.553498 1.694133 5.348174 -9.227080 -4.211979 -28.901018 -3.138018 -0.611426 3.737529 -0.955546 -6.661225 18.966854 -2.240600 -0.000000 -44.969400 11.359428 -4.673172 -0.274179 4.246088 -14.471060 -2.321701 0.001427 -1.959109 29.660619 -2.899728 -17.338438 9.868280 -5.569100 0.000000 -37.910100
3.216197 17.741680 0.917799 17.722703 71.332897 32.623300 -9.449485 1.673184 5.468250 -8.974876 -5.569038 -28.918240 -2.980423 -0.535267 5.707194 -0.872553 -5.669329 16.627260 -1.632900 0.000000 -44.675800 11.476543 -4.594338 -0.355995 3.778224 -13.959556 -3.048459 -0.107910 -2.212830 33.273388 -2.798793 -16.467896 8.982454 -4.967699 -0.000000 -39.731500
3.407245 17.636888 0.947862 18.242253 71.073092 33.117844 -9.323093 1.643852 5.580515 -8.839751 -6.937417 -29.044911 -2.835058 -0.458296 7.996503 -0.772909 -4.694890 13.827792 -1.074900 0.000000 -44.451600 11.608873 -4.522844 -0.394345 3.288426 -13.284444 -3.939431 -0.220560 -2.477074 37.026227 -2.614061 -15.081288 8.163834 -4.252000 -0.000000 -41.834600
3.596150 17.521279 0.978710 18.849790 70.768664 33.735766 -9.177432 1.607281 5.678919 -8.867422 -8.242902 -29.314615 -2.714209 -0.377473 10.605191 -0.656192 -3.808715 10.611554 -0.614200 0.000000 -44.241700 11.755387 -4.457094 -0.389877 2.769115 -12.495073 -4.987578 -0.340432 -2.742599 40.871359 -2.372048 -13.326751 7.314330 -3.476100 0.000000 -43.786100
3.786283 17.396702 1.009231 19.463198 70.444408 34.423322 -9.026063 1.566445 5.778931 -9.033209 -9.448314 -29.770622 -2.620568 -0.291561 13.482258 -0.519213 -3.028979 7.062046 -0.270301 -0.000000 -44.030400 11.903174 -4.403721 -0.328771 2.268553 -11.616427 -6.203803 -0.469475 -2.997293 44.731866 -2.106058 -11.411340 6.389003 -2.717300 0.000000 -45.272000
3.979232 17.268497 1.040003 19.986218 70.091912 35.086610 -8.890104 1.529008 5.897309 -9.286458 -10.528100 -30.403201 -2.548636 -0.197439 16.538588 -0.355926 -2.328338 3.320933 -0.044200 0.000000 -43.688900 12.032842 -4.365166 -0.191851 1.839385 -10.617587 -7.560587 -0.615041 -3.226998 48.510663 -1.854223 -9.586418 5.414625 -2.058800 0.000000 -46.114700
4.167618 17.133209 1.072281 20.648091 69.743958 35.877388 -8.745003 1.489311 5.985392 -9.714684 -11.487587 -31.110607 -2.507416 -0.085482 19.758720 -0.166372 -1.705619 -0.533186 0.066300 -0.000000 -43.262901 12.180442 -4.314862 -0.057794 1.347627 -9.677046 -8.978911 -0.776522 -3.448946 52.269579 -1.631145 -7.955902 4.293023 -1.506000 0.000001 -46.377800
4.349356 16.992222 1.106979 21.485149 69.403271 36.815093 -8.588781 1.450693 6.033490 -10.322998 -12.329142 -31.853973 -2.493598 0.049308 23.089030 0.048553 -1.137480 -4.385134 0.071300 -0.000000 -42.692900 12.353541 -4.245289 0.056767 0.770948 -8.829193 -10.435457 -0.957001 -3.668225 56.000901 -1.453584 -6.654618 3.041134 -1.081800 -0.000001 -46.185300
4.528855 16.850517 1.142783 22.333712 69.090350 37.771953 -8.446320 1.418407 6.065745 -11.011445 -13.045158 -32.641537 -2.491503 0.203923 26.430458 0.283523 -0.608051 -8.103989 -0.015300 0.000000 -41.991200 12.528121 -4.168349 0.176587 0.204171 -8.037262 -11.939570 -1.156871 -3.876086 59.623375 -1.335403 -5.800045 1.761030 -0.796500 0.000000 -45.762800
4.703419 16.709859 1.180528 23.232958 68.806233 38.758959 -8.314059 1.394046 6.065584 -11.781375 -13.632487 -33.402323 -2.496297 0.377190 29.713091 0.529033 -0.111217 -11.586533 -0.175300 0.000000 -41.194900 12.712735 -4.076129 0.280220 -0.379777 -7.330592 -13.454838 -1.376029 -4.079902 63.135615 -1.276891 -5.401614 0.476796 -0.619799 -0.000000 -45.213700
4.872976 16.573321 1.220404 24.144890 68.553443 39.733180 -8.197324 1.379793 6.030307 -12.597960 -14.080812 -34.090248 -2.501163 0.562894 32.855834 0.772203 0.346259 -14.744904 -0.386000 0.000000 -40.375000 12.903532 -3.968363 0.365245 -0.964165 -6.704091 -14.964366 -1.612305 -4.280525 66.508654 -1.275172 -5.434722 -0.769040 -0.520000 -0.000001 -44.573300
